<svg width="6" height="6" viewBox="0 0 6 6" fill="none" xmlns="http://www.w3.org/2000/svg">
<rect width="6" height="6" fill="#E5E5E5"/>
<rect x="-797" y="-92" width="1920" height="1412" fill="#181818"/>
<g filter="url(#filter0_d_0_1)">
<rect x="-22" y="-22" width="350" height="50" rx="5" fill="#121212"/>
<rect x="-7.5" y="-7.5" width="21" height="21" fill="#121212" stroke="#2B2B2B"/>
<path d="M6 3C6 4.65726 4.65726 6 3 6C1.34274 6 0 4.65726 0 3C0 1.34274 1.34274 0 3 0C4.65726 0 6 1.34274 6 3ZM2.46774 1.59677V3H1.61008C1.48065 3 1.41532 3.15726 1.50726 3.24798L2.89718 4.63064C2.95403 4.6875 3.04476 4.6875 3.10161 4.63064L4.49153 3.24798C4.58347 3.15605 4.51815 3 4.38871 3H3.53226V1.59677C3.53226 1.51694 3.46694 1.45161 3.3871 1.45161H2.6129C2.53306 1.45161 2.46774 1.51694 2.46774 1.59677Z" fill="#828282"/>
</g>
<defs>
<filter id="filter0_d_0_1" x="-47" y="-32" width="400" height="100" filterUnits="userSpaceOnUse" color-interpolation-filters="sRGB">
<feFlood flood-opacity="0" result="BackgroundImageFix"/>
<feColorMatrix in="SourceAlpha" type="matrix" values="0 0 0 0 0 0 0 0 0 0 0 0 0 0 0 0 0 0 127 0" result="hardAlpha"/>
<feOffset dy="15"/>
<feGaussianBlur stdDeviation="12.5"/>
<feColorMatrix type="matrix" values="0 0 0 0 0 0 0 0 0 0 0 0 0 0 0 0 0 0 0.45 0"/>
<feBlend mode="normal" in2="BackgroundImageFix" result="effect1_dropShadow_0_1"/>
<feBlend mode="normal" in="SourceGraphic" in2="effect1_dropShadow_0_1" result="shape"/>
</filter>
</defs>
</svg>
