<svg width="10" height="8" viewBox="0 0 10 8" fill="none" xmlns="http://www.w3.org/2000/svg">
<rect width="10" height="8" fill="#E5E5E5"/>
<g filter="url(#filter0_d_0_1)">
<rect x="-651" y="-1263" width="1920" height="1412" fill="#181818"/>
</g>
<g filter="url(#filter1_d_0_1)">
<rect width="1570" height="132" transform="translate(-301 -68)" fill="#0D0D0D"/>
<path d="M8.47832 0.647507C9.6077 2.31828 10.1654 4.20286 9.95695 6.37244C9.95607 6.38163 9.95132 6.39005 9.94382 6.39559C9.08857 7.02747 8.25995 7.41095 7.44295 7.66527C7.43659 7.66721 7.42978 7.6671 7.42348 7.66496C7.41718 7.66282 7.41171 7.65875 7.40783 7.65332C7.21908 7.38907 7.04758 7.11048 6.89733 6.81793C6.8887 6.8007 6.89658 6.77995 6.91433 6.77316C7.1867 6.6699 7.4457 6.54614 7.69482 6.39961C7.71445 6.38804 7.7157 6.35974 7.69757 6.34616C7.6447 6.30667 7.59232 6.26516 7.5422 6.22366C7.53282 6.21598 7.5202 6.21447 7.50958 6.21963C5.8922 6.97112 4.12046 6.97112 2.48396 6.21963C2.47333 6.21485 2.46071 6.21649 2.45158 6.22403C2.40158 6.26554 2.34908 6.30667 2.29671 6.34616C2.27858 6.35974 2.28008 6.38804 2.29983 6.39961C2.54896 6.54337 2.80796 6.6699 3.07996 6.77366C3.09758 6.78045 3.10596 6.8007 3.09721 6.81793C2.95021 7.11086 2.77871 7.38945 2.58646 7.65369C2.57808 7.66439 2.56433 7.66929 2.55133 7.66527C1.73821 7.41095 0.909586 7.02747 0.0543378 6.39559C0.0472128 6.39005 0.0420878 6.38125 0.0413378 6.37207C-0.132912 4.49541 0.222212 2.59523 1.51859 0.647129C1.52171 0.641973 1.52646 0.637948 1.53196 0.635558C2.16983 0.340998 2.85321 0.124291 3.56746 0.000530199C3.58046 -0.00148217 3.59346 0.00455494 3.60021 0.0161261C3.68846 0.173342 3.78933 0.374957 3.85758 0.539719C4.61045 0.424008 5.37508 0.424008 6.1437 0.539719C6.21195 0.378478 6.30933 0.173342 6.3972 0.0161261C6.40033 0.0103857 6.40518 0.00578692 6.41106 0.00298614C6.41695 0.000185354 6.42356 -0.000674198 6.42995 0.000530199C7.14458 0.124668 7.82795 0.341375 8.46532 0.635558C8.47095 0.637948 8.47557 0.641973 8.47832 0.647507V0.647507ZM4.24033 4.21569C4.24821 3.6609 3.84621 3.20183 3.34158 3.20183C2.84108 3.20183 2.44296 3.65688 2.44296 4.21569C2.44296 4.77437 2.84896 5.22942 3.34158 5.22942C3.84221 5.22942 4.24033 4.77437 4.24033 4.21569V4.21569ZM7.56307 4.21569C7.57095 3.6609 7.16895 3.20183 6.66445 3.20183C6.16383 3.20183 5.7657 3.65688 5.7657 4.21569C5.7657 4.77437 6.1717 5.22942 6.66445 5.22942C7.16895 5.22942 7.56307 4.77437 7.56307 4.21569V4.21569Z" fill="#E95420"/>
</g>
<defs>
<filter id="filter0_d_0_1" x="-655" y="-1263" width="1928" height="1420" filterUnits="userSpaceOnUse" color-interpolation-filters="sRGB">
<feFlood flood-opacity="0" result="BackgroundImageFix"/>
<feColorMatrix in="SourceAlpha" type="matrix" values="0 0 0 0 0 0 0 0 0 0 0 0 0 0 0 0 0 0 127 0" result="hardAlpha"/>
<feOffset dy="4"/>
<feGaussianBlur stdDeviation="2"/>
<feComposite in2="hardAlpha" operator="out"/>
<feColorMatrix type="matrix" values="0 0 0 0 0 0 0 0 0 0 0 0 0 0 0 0 0 0 0.25 0"/>
<feBlend mode="normal" in2="BackgroundImageFix" result="effect1_dropShadow_0_1"/>
<feBlend mode="normal" in="SourceGraphic" in2="effect1_dropShadow_0_1" result="shape"/>
</filter>
<filter id="filter1_d_0_1" x="-323" y="-85" width="1614" height="176" filterUnits="userSpaceOnUse" color-interpolation-filters="sRGB">
<feFlood flood-opacity="0" result="BackgroundImageFix"/>
<feColorMatrix in="SourceAlpha" type="matrix" values="0 0 0 0 0 0 0 0 0 0 0 0 0 0 0 0 0 0 127 0" result="hardAlpha"/>
<feOffset dy="5"/>
<feGaussianBlur stdDeviation="11"/>
<feComposite in2="hardAlpha" operator="out"/>
<feColorMatrix type="matrix" values="0 0 0 0 0 0 0 0 0 0 0 0 0 0 0 0 0 0 0.25 0"/>
<feBlend mode="normal" in2="BackgroundImageFix" result="effect1_dropShadow_0_1"/>
<feBlend mode="normal" in="SourceGraphic" in2="effect1_dropShadow_0_1" result="shape"/>
</filter>
</defs>
</svg>
