<svg width="10" height="10" viewBox="0 0 10 10" fill="none" xmlns="http://www.w3.org/2000/svg">
<path d="M9.54076 5.71429H6.17342C5.91991 5.71429 5.71423 5.91996 5.71423 6.17347V9.54082C5.71423 9.79433 5.91991 10 6.17342 10H9.54076C9.79427 10 9.99995 9.79433 9.99995 9.54082V6.17347C9.99995 5.91996 9.79427 5.71429 9.54076 5.71429Z" fill="white"/>
<path d="M3.82653 5.71429H0.459184C0.205676 5.71429 0 5.91996 0 6.17347V9.54082C0 9.79433 0.205676 10 0.459184 10H3.82653C4.08004 10 4.28571 9.79433 4.28571 9.54082V6.17347C4.28571 5.91996 4.08004 5.71429 3.82653 5.71429Z" fill="white"/>
<path d="M6.68371 0H3.31636C3.06285 0 2.85718 0.205676 2.85718 0.459184V3.82653C2.85718 4.08004 3.06285 4.28571 3.31636 4.28571H6.68371C6.93722 4.28571 7.14289 4.08004 7.14289 3.82653V0.459184C7.14289 0.205676 6.93722 0 6.68371 0Z" fill="white"/>
</svg>
