<svg width="10" height="11" viewBox="0 0 10 11" fill="none" xmlns="http://www.w3.org/2000/svg">
<path d="M10 5.5C10 8.26204 7.76123 10.5 5 10.5C2.23877 10.5 0 8.26204 0 5.5C0 2.73958 2.23877 0.5 5 0.5C7.76123 0.5 10 2.73958 10 5.5ZM5.13417 2.15323C4.03544 2.15323 3.33468 2.61607 2.7844 3.43867C2.7131 3.54524 2.73696 3.68897 2.83913 3.76645L3.53871 4.2969C3.64365 4.37647 3.79317 4.35754 3.8747 4.25411C4.23486 3.7973 4.48181 3.5324 5.03 3.5324C5.44187 3.5324 5.95133 3.79748 5.95133 4.19688C5.95133 4.49881 5.70208 4.65387 5.2954 4.88188C4.82113 5.14774 4.19355 5.47865 4.19355 6.30645V6.3871C4.19355 6.52071 4.30187 6.62903 4.43548 6.62903H5.56452C5.69812 6.62903 5.80645 6.52071 5.80645 6.3871V6.36022C5.80645 5.78639 7.48359 5.7625 7.48359 4.20968C7.48359 3.04028 6.27058 2.15323 5.13417 2.15323ZM5 7.15323C4.48861 7.15323 4.07258 7.56925 4.07258 8.08065C4.07258 8.59202 4.48861 9.00806 5 9.00806C5.51139 9.00806 5.92742 8.59202 5.92742 8.08065C5.92742 7.56925 5.51139 7.15323 5 7.15323Z" fill="white"/>
</svg>
