<svg width="14" height="10" viewBox="0 0 14 10" fill="none" xmlns="http://www.w3.org/2000/svg">
<rect width="14" height="10" fill="#E5E5E5"/>
<rect x="-1875" y="-15" width="1920" height="1412" fill="#181818"/>
<g filter="url(#filter0_d_0_1)">
<rect width="1570" height="40" transform="translate(-1525 -15)" fill="#0D0D0D"/>
<g filter="url(#filter1_d_0_1)">
<rect x="-178" y="-15" width="223.324" height="40" fill="#202020"/>
</g>
<g clip-path="url(#clip0_0_1)">
<rect width="13.3333" height="10" fill="white"/>
<rect width="13.3333" height="10" fill="#4F2020" fill-opacity="0.2"/>
<path fill-rule="evenodd" clip-rule="evenodd" d="M0 0H19V0.769542H0V0ZM0 1.53906H19V2.3086H0V1.53906ZM0 3.07617H19V3.84765H0V3.07617ZM0 4.61523H19V5.38477H0V4.61523ZM0 6.15429H19V6.92383H0V6.15429ZM0 7.6914H19V8.46094H0V7.6914ZM0 9.23046H19V10H0V9.23046Z" fill="#BD3D44"/>
<path fill-rule="evenodd" clip-rule="evenodd" d="M0 0.769542H19V1.53906H0V0.769542ZM0 2.30858H19V3.07617H0V2.30858ZM0 3.84571H19V4.61523H0V3.84571ZM0 5.38477H19V6.15429H0V5.38477ZM0 6.92383H19V7.69335H0V6.92383ZM0 8.46094H19V9.23048H0V8.46094Z" fill="white"/>
<path fill-rule="evenodd" clip-rule="evenodd" d="M0 0H7.5996V5.38477H0V0Z" fill="#192F5D"/>
<path fill-rule="evenodd" clip-rule="evenodd" d="M0.632802 0.230479L0.703115 0.443333H0.925781L0.746073 0.574208L0.814448 0.789042L0.632802 0.656229L0.453115 0.787083L0.521469 0.574208L0.339844 0.443333H0.566406L0.632802 0.230479ZM1.90039 0.230479L1.96874 0.443333H2.19334L2.0117 0.574208L2.08007 0.789042L1.90039 0.656229L1.71874 0.787083L1.78709 0.574208L1.60741 0.443333H1.83007L1.90039 0.230479ZM3.16601 0.230479L3.23632 0.443354H3.45703L3.27734 0.574229L3.34568 0.789063L3.16405 0.65625L2.98436 0.787104L3.05272 0.574229L2.87107 0.443354H3.0957L3.16601 0.230479ZM4.43359 0.230479L4.50193 0.443354H4.72655L4.54491 0.574229L4.61522 0.789063L4.43357 0.65625L4.25195 0.787104L4.32226 0.574229L4.14061 0.443354H4.36328L4.43359 0.230479ZM5.69922 0.230479L5.76953 0.443354H5.99218L5.81249 0.574229L5.88084 0.789063L5.6992 0.65625L5.51951 0.787104L5.58788 0.574229L5.4082 0.443354H5.63084L5.69922 0.230479ZM6.96678 0.230479L7.03514 0.443354H7.25976L7.07811 0.574229L7.14843 0.789063L6.96678 0.65625L6.78514 0.787104L6.85545 0.574229L6.67382 0.443354H6.89843L6.96678 0.230479ZM1.26757 0.7695L1.33593 0.982417H1.56053L1.37889 1.11325L1.4453 1.32617L1.26951 1.19529L1.08789 1.32615L1.15232 1.11327L0.976552 0.982396H1.19922L1.26757 0.7695ZM2.5332 0.7695L2.60351 0.982417H2.82616L2.64451 1.11325L2.71484 1.32617L2.53318 1.19529L2.35155 1.32615L2.42186 1.11327L2.24022 0.982396H2.46482L2.5332 0.7695ZM3.80078 0.7695L3.86911 0.982417H4.09374L3.91209 1.11325L3.98045 1.32617L3.80076 1.19529L3.61914 1.32615L3.68749 1.11329L3.5078 0.982417H3.73047L3.80078 0.7695ZM5.06641 0.7695L5.13672 0.982417H5.35936L5.17772 1.11325L5.24803 1.32617L5.06638 1.19529L4.8867 1.32615L4.95507 1.11327L4.77343 0.982396H4.99999L5.06641 0.7695ZM6.33397 0.7695L6.40232 0.982417H6.62695L6.4453 1.11325L6.51366 1.32617L6.33397 1.19529L6.15232 1.32615L6.2207 1.11327L6.04101 0.982396H6.26366L6.33397 0.7695ZM0.632802 1.30667L0.703115 1.52346H0.925781L0.746073 1.65431L0.814448 1.86721L0.632802 1.7344L0.453115 1.86721L0.521469 1.65235L0.339844 1.52152H0.566406L0.632802 1.30667ZM1.90039 1.30667L1.96874 1.52146H2.19334L2.0117 1.65231L2.08007 1.86523L1.90039 1.7324L1.71874 1.86521L1.78709 1.65038L1.60741 1.51952H1.83007L1.90039 1.30667ZM3.16601 1.30667L3.23632 1.5215H3.45703L3.27734 1.65235L3.34568 1.86527L3.16405 1.73244L2.98436 1.86525L3.05272 1.65042L2.87107 1.51956H3.0957L3.16601 1.30667ZM4.43359 1.30667L4.50193 1.5215H4.72655L4.54491 1.65235L4.61522 1.86527L4.43357 1.73244L4.25195 1.86525L4.32226 1.65042L4.14061 1.51956H4.36328L4.43359 1.30667ZM5.69922 1.30667L5.76953 1.5215H5.99218L5.81249 1.65233L5.88084 1.86525L5.6992 1.73242L5.51951 1.86523L5.58788 1.6504L5.4082 1.51954H5.63084L5.69922 1.30667ZM6.96678 1.30667L7.03514 1.5215H7.25976L7.07811 1.65235L7.14843 1.86527L6.96678 1.73244L6.78514 1.86525L6.85545 1.65042L6.67382 1.51956H6.89843L6.96678 1.30667ZM1.26757 1.84571L1.33593 2.0586H1.56053L1.37889 2.18944L1.44726 2.40429L1.26757 2.27148L1.08593 2.40233L1.15428 2.18946L0.974594 2.0586H1.19728L1.26757 1.84571ZM2.5332 1.84571L2.60351 2.0586H2.82616L2.64451 2.18944L2.71484 2.40429L2.53318 2.27148L2.35155 2.40233L2.42186 2.18946L2.24022 2.0586H2.46482L2.5332 1.84571ZM3.80078 1.84571L3.86911 2.0586H4.09374L3.91209 2.18944L3.98045 2.40429L3.80076 2.27148L3.61914 2.40233L3.68749 2.18946L3.5078 2.0586H3.73047L3.80078 1.84571ZM5.06641 1.84571L5.13672 2.0586H5.35936L5.17968 2.18944L5.24803 2.40429L5.06638 2.27148L4.8867 2.40233L4.95507 2.18946L4.77343 2.0586H4.99999L5.06641 1.84571ZM6.33397 1.84571L6.40232 2.0586H6.62695L6.4453 2.18944L6.51366 2.40429L6.33397 2.27148L6.15232 2.40233L6.2207 2.18946L6.04101 2.0586H6.26366L6.33397 1.84571ZM0.632802 2.38477L0.703115 2.59767H0.925781L0.746073 2.7285L0.814448 2.94335L0.632802 2.81054L0.453115 2.9414L0.521469 2.72852L0.339844 2.59767H0.566406L0.632802 2.38477ZM1.90039 2.38477L1.96874 2.59767H2.19334L2.0117 2.7285L2.08007 2.94142L1.90039 2.81054L1.71874 2.9414L1.78709 2.72852L1.60741 2.59767H1.83007L1.90039 2.38477ZM3.16601 2.38477L3.23632 2.59767H3.45703L3.27734 2.7285L3.34568 2.94335L3.16405 2.81054L2.98436 2.9414L3.05272 2.72852L2.87107 2.59767H3.0957L3.16601 2.38477ZM4.43359 2.38477L4.50193 2.59767H4.72655L4.54491 2.7285L4.61522 2.94335L4.43357 2.81054L4.25195 2.9414L4.32226 2.72852L4.14061 2.59767H4.36328L4.43359 2.38477ZM5.69922 2.38477L5.76953 2.59767H5.99218L5.81249 2.7285L5.88084 2.94335L5.6992 2.81054L5.51951 2.9414L5.58788 2.72852L5.4082 2.59767H5.63084L5.69922 2.38477ZM6.96678 2.38477L7.03514 2.59767H7.25976L7.07811 2.7285L7.14843 2.94335L6.96678 2.81054L6.78514 2.9414L6.85545 2.72852L6.67382 2.59767H6.89843L6.96678 2.38477ZM1.26757 2.92383L1.33593 3.13673H1.56053L1.37889 3.26756L1.44726 3.48048L1.26757 3.34767L1.08593 3.48048L1.15428 3.26563L0.974594 3.13477H1.19728L1.26757 2.92383ZM2.5332 2.92383L2.60351 3.13673H2.82616L2.64451 3.26756L2.71484 3.48048L2.53318 3.34767L2.35155 3.48048L2.42186 3.26563L2.24022 3.13477H2.46482L2.5332 2.92383ZM3.80078 2.92383L3.86911 3.13673H4.09374L3.91209 3.26756L3.98045 3.48048L3.80076 3.34767L3.61914 3.48048L3.68749 3.26563L3.5078 3.13477H3.73047L3.80078 2.92383ZM5.06641 2.92383L5.13672 3.13673H5.35936L5.17968 3.26756L5.24803 3.48048L5.06638 3.34767L4.8867 3.48048L4.95507 3.26563L4.77343 3.13477H4.99999L5.06641 2.92383ZM6.33397 2.92383L6.40232 3.13673H6.62695L6.4453 3.26756L6.51366 3.48048L6.33397 3.34767L6.15232 3.48048L6.2207 3.26563L6.04101 3.13477H6.26366L6.33397 2.92383ZM0.632802 3.46094L0.703115 3.67579H0.925781L0.746073 3.80663L0.814448 4.01758L0.632802 3.88673L0.453115 4.01756L0.521469 3.80469L0.339844 3.67383H0.566406L0.632802 3.46094ZM1.90039 3.46094L1.96874 3.67579H2.19334L2.0117 3.80663L2.08203 4.01758L1.90036 3.88673L1.71874 4.01756L1.78905 3.80469L1.60741 3.67383H1.83007L1.90039 3.46094ZM3.16601 3.46094L3.23632 3.67579H3.45703L3.27734 3.80663L3.34568 4.01758L3.16405 3.88673L2.98436 4.01756L3.05272 3.80469L2.87107 3.67383H3.0957L3.16601 3.46094ZM4.43359 3.46094L4.50193 3.67579H4.72655L4.54491 3.80663L4.61522 4.01758L4.43357 3.88673L4.25195 4.01756L4.32226 3.80469L4.14061 3.67383H4.36328L4.43359 3.46094ZM5.69922 3.46094L5.76953 3.67579H5.99218L5.81249 3.80663L5.88084 4.01758L5.6992 3.88673L5.51951 4.01756L5.58788 3.80469L5.4082 3.67383H5.63084L5.69922 3.46094ZM6.96678 3.46094L7.03514 3.67579H7.25976L7.07811 3.80663L7.14843 4.01758L6.96678 3.88673L6.78514 4.01756L6.85545 3.80469L6.67382 3.67383H6.89843L6.96678 3.46094ZM1.26757 4L1.33593 4.2129H1.56053L1.37889 4.34375L1.44726 4.5586L1.26757 4.42579L1.08593 4.55663L1.15428 4.34375L0.974594 4.2129H1.19728L1.26757 4ZM2.5332 4L2.60351 4.2129H2.82616L2.64451 4.34375L2.71484 4.5586L2.53318 4.42579L2.35155 4.55663L2.42186 4.34375L2.24022 4.2129H2.46482L2.5332 4ZM3.80078 4L3.86911 4.2129H4.09374L3.91209 4.34375L3.98045 4.5586L3.80076 4.42579L3.61914 4.55663L3.68749 4.34375L3.5078 4.2129H3.73047L3.80078 4ZM5.06641 4L5.13672 4.2129H5.35936L5.17968 4.34375L5.24803 4.5586L5.06638 4.42579L4.8867 4.55663L4.95507 4.34375L4.77343 4.2129H4.99999L5.06641 4ZM6.33397 4L6.40232 4.2129H6.62695L6.4453 4.34375L6.51366 4.5586L6.33397 4.42579L6.15232 4.55663L6.2207 4.34375L6.04101 4.2129H6.26366L6.33397 4ZM0.632802 4.53906L0.703115 4.75196H0.925781L0.746073 4.88281L0.814448 5.09571L0.632802 4.96485L0.453115 5.09569L0.521469 4.88085L0.339844 4.75H0.566406L0.632802 4.53906ZM1.90039 4.53906L1.96874 4.75196H2.19334L2.0117 4.88281L2.08203 5.09571L1.90036 4.96485L1.71874 5.09569L1.78905 4.88085L1.60741 4.75H1.83007L1.90039 4.53906ZM3.16601 4.53906L3.23632 4.75196H3.45703L3.28124 4.88281L3.34959 5.09571L3.16795 4.96485L2.98826 5.09569L3.05664 4.88085L2.87499 4.75H3.09959L3.16601 4.53906ZM4.43359 4.53906L4.50193 4.75196H4.72655L4.54491 4.88281L4.61522 5.09571L4.43357 4.96485L4.25195 5.09569L4.32226 4.88085L4.14061 4.75H4.36328L4.43359 4.53906ZM5.69922 4.53906L5.76953 4.75196H5.99218L5.81249 4.88281L5.88084 5.09571L5.6992 4.96485L5.51951 5.09569L5.58788 4.88085L5.4082 4.75H5.63084L5.69922 4.53906ZM6.96678 4.53906L7.03514 4.75196H7.25976L7.07811 4.88281L7.14843 5.09571L6.96678 4.96485L6.78514 5.09569L6.85545 4.88085L6.67382 4.75H6.89843L6.96678 4.53906Z" fill="white"/>
</g>
</g>
<defs>
<filter id="filter0_d_0_1" x="-1547" y="-32" width="1614.32" height="84" filterUnits="userSpaceOnUse" color-interpolation-filters="sRGB">
<feFlood flood-opacity="0" result="BackgroundImageFix"/>
<feColorMatrix in="SourceAlpha" type="matrix" values="0 0 0 0 0 0 0 0 0 0 0 0 0 0 0 0 0 0 127 0" result="hardAlpha"/>
<feOffset dy="5"/>
<feGaussianBlur stdDeviation="11"/>
<feColorMatrix type="matrix" values="0 0 0 0 0 0 0 0 0 0 0 0 0 0 0 0 0 0 0.25 0"/>
<feBlend mode="normal" in2="BackgroundImageFix" result="effect1_dropShadow_0_1"/>
<feBlend mode="normal" in="SourceGraphic" in2="effect1_dropShadow_0_1" result="shape"/>
</filter>
<filter id="filter1_d_0_1" x="-195" y="-24" width="243.324" height="60" filterUnits="userSpaceOnUse" color-interpolation-filters="sRGB">
<feFlood flood-opacity="0" result="BackgroundImageFix"/>
<feColorMatrix in="SourceAlpha" type="matrix" values="0 0 0 0 0 0 0 0 0 0 0 0 0 0 0 0 0 0 127 0" result="hardAlpha"/>
<feOffset dx="-7" dy="1"/>
<feGaussianBlur stdDeviation="5"/>
<feColorMatrix type="matrix" values="0 0 0 0 0 0 0 0 0 0 0 0 0 0 0 0 0 0 0.3 0"/>
<feBlend mode="normal" in2="BackgroundImageFix" result="effect1_dropShadow_0_1"/>
<feBlend mode="normal" in="SourceGraphic" in2="effect1_dropShadow_0_1" result="shape"/>
</filter>
<clipPath id="clip0_0_1">
<rect width="13.3333" height="10" fill="white"/>
</clipPath>
</defs>
</svg>
