<svg width="10" height="10" viewBox="0 0 10 10" fill="none" xmlns="http://www.w3.org/2000/svg">
<path d="M4.86742 2.76998L1.6668 5.73613V8.93746C1.6668 9.02035 1.69606 9.09985 1.74815 9.15846C1.80024 9.21707 1.87089 9.25 1.94455 9.25L3.88989 9.24434C3.96332 9.24392 4.03361 9.21081 4.0854 9.15225C4.13719 9.09368 4.16626 9.01442 4.16626 8.9318V7.06226C4.16626 6.97937 4.19552 6.89987 4.24761 6.84126C4.2997 6.78265 4.37035 6.74972 4.44402 6.74972H5.55504C5.62871 6.74972 5.69935 6.78265 5.75144 6.84126C5.80353 6.89987 5.8328 6.97937 5.8328 7.06226V8.93043C5.83268 8.97156 5.83978 9.0123 5.85369 9.05033C5.8676 9.08837 5.88804 9.12294 5.91384 9.15206C5.93965 9.18119 5.9703 9.20429 6.00406 9.22006C6.03782 9.23583 6.07401 9.24395 6.11055 9.24394L8.0552 9.25C8.12886 9.25 8.19951 9.21707 8.2516 9.15846C8.30369 9.09985 8.33295 9.02035 8.33295 8.93746V5.73398L5.13302 2.76998C5.09541 2.73586 5.04854 2.71725 5.00022 2.71725C4.9519 2.71725 4.90504 2.73586 4.86742 2.76998ZM9.92311 4.78603L8.47183 3.43998V0.734401C8.47183 0.672234 8.44988 0.612613 8.41082 0.568655C8.37175 0.524696 8.31876 0.5 8.26351 0.5H7.29137C7.23612 0.5 7.18313 0.524696 7.14406 0.568655C7.105 0.612613 7.08305 0.672234 7.08305 0.734401V2.15272L5.52883 0.713891C5.37967 0.575786 5.19251 0.500276 4.99935 0.500276C4.80619 0.500276 4.61903 0.575786 4.46988 0.713891L0.0756016 4.78603C0.0545073 4.80564 0.0370551 4.82975 0.0242422 4.85696C0.0114293 4.88417 0.00350681 4.91395 0.000927386 4.94461C-0.00165203 4.97526 0.00116218 5.00619 0.00920922 5.03562C0.0172563 5.06506 0.0303784 5.09242 0.047826 5.11614L0.4905 5.72168C0.5079 5.74548 0.529302 5.76519 0.553481 5.77968C0.57766 5.79417 0.604141 5.80315 0.631408 5.80611C0.658675 5.80906 0.686193 5.80594 0.712386 5.79692C0.738579 5.78789 0.762933 5.77314 0.784054 5.75352L4.86742 1.96911C4.90504 1.93499 4.9519 1.91638 5.00022 1.91638C5.04854 1.91638 5.09541 1.93499 5.13302 1.96911L9.21657 5.75352C9.23765 5.77315 9.26196 5.78791 9.28812 5.79697C9.31428 5.80602 9.34177 5.80919 9.36901 5.80629C9.39626 5.80338 9.42273 5.79447 9.44691 5.78005C9.47109 5.76564 9.49251 5.746 9.50994 5.72226L9.95262 5.11673C9.97005 5.09286 9.98312 5.06536 9.99107 5.0358C9.99902 5.00624 10.0017 4.9752 9.99896 4.94447C9.99622 4.91374 9.9881 4.88392 9.97509 4.85673C9.96207 4.82954 9.9444 4.80551 9.92311 4.78603Z" fill="white"/>
</svg>
