<svg width="10" height="7" viewBox="0 0 10 7" fill="none" xmlns="http://www.w3.org/2000/svg">
<rect width="10" height="7" fill="#E5E5E5"/>
<rect x="-1600" y="-18" width="1920" height="1412" fill="#181818"/>
<g filter="url(#filter0_d_0_1)">
<rect width="1570" height="40" transform="translate(-1250 -18)" fill="#0D0D0D"/>
<path d="M9.70547 0.350932C9.09939 0.0967173 8.49284 1.87928e-08 7.8866 1.87928e-08C5.96209 -0.000156229 4.03775 0.974047 2.11325 0.974047C1.6306 0.974047 1.14826 0.912798 0.665615 0.759676C0.611397 0.742489 0.557023 0.734364 0.503898 0.734364C0.234996 0.734364 0 0.942485 0 1.23139V6.1885C0 6.38584 0.112967 6.57287 0.29437 6.6488C0.900455 6.90317 1.50701 6.99989 2.11325 6.99989C4.03775 6.99989 5.96225 6.02569 7.88675 6.02569C8.3694 6.02569 8.85174 6.08694 9.33438 6.24006C9.3886 6.25725 9.44298 6.26537 9.4961 6.26537C9.765 6.26537 10 6.05725 10 5.76835V0.811394C9.99984 0.613897 9.88688 0.427025 9.70547 0.350932ZM0.749988 1.56591C1.06436 1.64466 1.39248 1.68419 1.72997 1.70544C1.6381 2.16465 1.23436 2.51074 0.749988 2.51074V1.56591ZM0.749988 6.01897V5.27242C1.28701 5.27242 1.72154 5.6985 1.74544 6.23178C1.39342 6.2035 1.06436 6.13319 0.749988 6.01897ZM4.99992 4.99992C4.30946 4.99992 3.74994 4.32821 3.74994 3.49995C3.74994 2.67152 4.30962 1.99997 4.99992 1.99997C5.69022 1.99997 6.2499 2.67152 6.2499 3.49995C6.2499 4.32853 5.69007 4.99992 4.99992 4.99992ZM9.24986 5.43398C8.97611 5.36539 8.6919 5.32695 8.40112 5.3021C8.49284 4.89461 8.8308 4.58524 9.24986 4.53212V5.43398ZM9.24986 1.74482C8.76721 1.68372 8.39268 1.28076 8.37784 0.783113C8.68315 0.817019 8.97299 0.880455 9.24986 0.980922V1.74482Z" fill="white"/>
</g>
<defs>
<filter id="filter0_d_0_1" x="-1272" y="-35" width="1614.32" height="84" filterUnits="userSpaceOnUse" color-interpolation-filters="sRGB">
<feFlood flood-opacity="0" result="BackgroundImageFix"/>
<feColorMatrix in="SourceAlpha" type="matrix" values="0 0 0 0 0 0 0 0 0 0 0 0 0 0 0 0 0 0 127 0" result="hardAlpha"/>
<feOffset dy="5"/>
<feGaussianBlur stdDeviation="11"/>
<feColorMatrix type="matrix" values="0 0 0 0 0 0 0 0 0 0 0 0 0 0 0 0 0 0 0.25 0"/>
<feBlend mode="normal" in2="BackgroundImageFix" result="effect1_dropShadow_0_1"/>
<feBlend mode="normal" in="SourceGraphic" in2="effect1_dropShadow_0_1" result="shape"/>
</filter>
</defs>
</svg>
