<svg width="10" height="9" viewBox="0 0 10 9" fill="none" xmlns="http://www.w3.org/2000/svg">
<path d="M9.91858 3.36703L9.52569 2.97415C9.41718 2.86564 9.24131 2.86564 9.13281 2.97415L8.93645 3.1705L8.43471 2.66877C8.53246 2.2988 8.44096 1.88925 8.15086 1.59914L7.36526 0.813546C6.28053 -0.271182 4.52167 -0.271182 3.43677 0.813546L5.00813 1.59914V1.92466C5.00813 2.21928 5.12515 2.50192 5.33365 2.71026L6.18678 3.56339C6.47689 3.85349 6.88644 3.94499 7.25641 3.84724L7.75815 4.34898L7.56179 4.54534C7.45328 4.65385 7.45328 4.82971 7.56179 4.93822L7.95468 5.33111C8.06318 5.43961 8.23905 5.43961 8.34756 5.33111L9.91892 3.75974C10.0271 3.65141 10.0271 3.47554 9.91858 3.36703ZM4.94077 3.10314C4.87653 3.03891 4.82202 2.9679 4.76976 2.89568L0.340917 7.03059C-0.10301 7.44518 -0.114989 8.14501 0.314354 8.57453C0.743697 9.00404 1.4437 8.99206 1.85829 8.54796L5.99251 4.11964C5.92376 4.06912 5.85536 4.01773 5.7939 3.95627L4.94077 3.10314Z" fill="white"/>
</svg>
