<svg width="12" height="12" viewBox="0 0 12 12" fill="none" xmlns="http://www.w3.org/2000/svg">
<path d="M7.96114 5.7C7.96114 6.066 7.65257 6.366 7.26171 6.366C6.87771 6.366 6.56229 6.066 6.56229 5.7C6.56229 5.334 6.87086 5.034 7.26171 5.034C7.65257 5.034 7.96114 5.334 7.96114 5.7ZM4.75886 5.034C4.368 5.034 4.05943 5.334 4.05943 5.7C4.05943 6.066 4.37486 6.366 4.75886 6.366C5.14971 6.366 5.45829 6.066 5.45829 5.7C5.46514 5.334 5.14971 5.034 4.75886 5.034ZM12 1.236V12C10.2725 10.6642 10.825 11.1064 8.81829 9.474L9.18171 10.584H1.40571C0.630857 10.584 0 10.032 0 9.348V1.236C0 0.552 0.630857 0 1.40571 0H10.5943C11.3691 0 12 0.552 12 1.236ZM10.0457 6.924C10.0457 4.992 9.05829 3.426 9.05829 3.426C8.07086 2.778 7.13143 2.796 7.13143 2.796L7.03543 2.892C8.20114 3.204 8.74286 3.654 8.74286 3.654C7.11399 2.87285 5.20061 2.87271 3.62057 3.48C3.36686 3.582 3.216 3.654 3.216 3.654C3.216 3.654 3.78514 3.18 5.01943 2.868L4.95086 2.796C4.95086 2.796 4.01143 2.778 3.024 3.426C3.024 3.426 2.03657 4.992 2.03657 6.924C2.03657 6.924 2.61257 7.794 4.128 7.836C4.128 7.836 4.38171 7.566 4.58743 7.338C3.71657 7.11 3.38743 6.63 3.38743 6.63C3.4883 6.69178 3.65464 6.77187 3.66857 6.78C4.82598 7.34714 6.47004 7.53295 7.94743 6.99C8.18743 6.912 8.45486 6.798 8.736 6.636C8.736 6.636 8.39314 7.128 7.49486 7.35C7.70057 7.578 7.94743 7.836 7.94743 7.836C9.46286 7.794 10.0457 6.924 10.0457 6.924Z" fill="white"/>
</svg>
