<svg width="12" height="12" viewBox="0 0 12 12" fill="none" xmlns="http://www.w3.org/2000/svg">
<path d="M0 3.36036V2.88041C0 2.4828 0.251836 2.16049 0.5625 2.16049H9V0.720641C9 0.0796995 9.60701 -0.240516 9.96026 0.211566L11.8353 2.61131C12.0549 2.89247 12.0549 3.3483 11.8353 3.62943L9.96026 6.02918C9.60834 6.47949 9 6.16374 9 5.52013V4.08029H0.5625C0.251836 4.08029 0 3.75797 0 3.36036ZM11.4375 7.91988H3V6.48003C3 5.84068 2.39386 5.51773 2.03974 5.97095L0.164742 8.3707C-0.0549141 8.65186 -0.0549141 9.10769 0.164742 9.38882L2.03974 11.7886C2.39196 12.2393 3 11.9226 3 11.2795V9.83967H11.4375C11.7482 9.83967 12 9.51736 12 9.11975V8.6398C12 8.24219 11.7482 7.91988 11.4375 7.91988Z" fill="white"/>
</svg>
