<svg width="12" height="12" viewBox="0 0 12 12" fill="none" xmlns="http://www.w3.org/2000/svg">
<path d="M11.8467 7.44193L10.7701 6.84677C10.8788 6.28548 10.8788 5.70968 10.7701 5.14839L11.8467 4.55323C11.9706 4.48549 12.0262 4.34517 11.9857 4.21452C11.7052 3.35324 11.2275 2.57421 10.6033 1.92582C10.5073 1.82663 10.3506 1.80244 10.2293 1.87018L9.15266 2.46534C8.70028 2.09276 8.17966 1.80485 7.61608 1.61615V0.428247C7.61608 0.292763 7.51752 0.174216 7.37852 0.145183C6.45101 -0.0532029 5.50076 -0.0435256 4.61874 0.145183C4.47974 0.174216 4.38118 0.292763 4.38118 0.428247V1.61856C3.82012 1.80969 3.2995 2.0976 2.8446 2.46776L1.77051 1.8726C1.64667 1.80485 1.49251 1.82663 1.39647 1.92824C0.772235 2.57421 0.294581 3.35324 0.0140546 4.21694C-0.0289089 4.34759 0.0292182 4.48791 0.153054 4.55565L1.22967 5.15081C1.121 5.7121 1.121 6.2879 1.22967 6.84919L0.153054 7.44435C0.0292182 7.51209 -0.0263817 7.65241 0.0140546 7.78306C0.294581 8.64434 0.772235 9.42337 1.39647 10.0718C1.49251 10.171 1.6492 10.1951 1.77051 10.1274L2.84712 9.53224C3.2995 9.90482 3.82012 10.1927 4.3837 10.3814V11.5718C4.3837 11.7072 4.48227 11.8258 4.62127 11.8548C5.54877 12.0532 6.49903 12.0435 7.38104 11.8548C7.52004 11.8258 7.61861 11.7072 7.61861 11.5718V10.3814C8.17966 10.1903 8.70028 9.9024 9.15519 9.53224L10.2318 10.1274C10.3556 10.1951 10.5098 10.1734 10.6058 10.0718C11.2301 9.42579 11.7077 8.64676 11.9883 7.78306C12.0262 7.64999 11.9706 7.50967 11.8467 7.44193ZM5.99863 7.93306C4.8841 7.93306 3.97681 7.06451 3.97681 5.99758C3.97681 4.93065 4.8841 4.0621 5.99863 4.0621C7.11315 4.0621 8.02044 4.93065 8.02044 5.99758C8.02044 7.06451 7.11315 7.93306 5.99863 7.93306Z" fill="white"/>
</svg>
