<svg width="12" height="12" viewBox="0 0 12 12" fill="none" xmlns="http://www.w3.org/2000/svg">
<path d="M3.1815 5.06897L1.33308 2.22849C2.48471 0.796158 4.21216 0.00740554 5.97831 0.000147083C7.00172 -0.00711138 8.04689 0.254193 8.99771 0.803417C10.0477 1.41313 10.8461 2.28898 11.3542 3.29549L6.38719 3.03418C4.98152 2.95192 3.6436 3.74309 3.1815 5.06897ZM3.97748 6.00047C3.97748 7.11828 4.88233 8.02316 6.00009 8.02316C7.11785 8.02316 8.0227 7.11828 8.0227 6.00047C8.0227 4.88267 7.11785 3.97778 6.00009 3.97778C4.88233 3.97778 3.97748 4.88025 3.97748 6.00047ZM11.5961 3.84229L8.21625 4.01649C9.1332 5.08833 9.14772 6.63438 8.37593 7.81993L5.66379 11.9911C6.78881 12.0516 7.9477 11.8048 8.99771 11.1951C11.5961 9.69503 12.6486 6.5497 11.5961 3.84229ZM3.23472 7.15215L0.977434 2.71239C0.360489 3.65599 0 4.78831 0 6.00047C0 9.00064 2.19681 11.4854 5.06862 11.9258L6.60978 8.90628C5.21621 9.16758 3.87102 8.40302 3.23472 7.15215Z" fill="white"/>
</svg>
